<?xml version="1.0" standalone="no"?>
<!DOCTYPE svg PUBLIC "-//W3C//DTD SVG 20010904//EN"
 "http://www.w3.org/TR/2001/REC-SVG-20010904/DTD/svg10.dtd">
<svg version="1.0" xmlns="http://www.w3.org/2000/svg"
 width="980.000000pt" height="980.000000pt" viewBox="0 0 980.000000 980.000000"
 preserveAspectRatio="xMidYMid meet">
<metadata>
Created by potrace 1.11, written by Peter Selinger 2001-2013
</metadata>
<g transform="translate(0.000000,980.000000) scale(0.100000,-0.100000)"
fill="#000000" stroke="none">
<path d="M6021 7564 c-1 -5 -22 -11 -48 -13 -26 -1 -49 -4 -53 -6 -3 -2 -33
-7 -65 -10 -33 -4 -64 -10 -69 -13 -5 -3 -19 -6 -30 -8 -62 -7 -189 -38 -281
-69 -44 -15 -87 -28 -96 -30 -8 -2 -33 -11 -55 -20 -21 -9 -46 -18 -54 -20 -8
-2 -16 -4 -17 -5 -2 -2 -6 -3 -10 -5 -5 -1 -28 -11 -53 -22 -25 -11 -56 -24
-70 -28 -14 -4 -27 -11 -30 -14 -3 -4 -25 -15 -50 -26 -47 -21 -184 -94 -260
-139 -25 -14 -60 -34 -77 -43 -18 -9 -33 -20 -33 -25 0 -4 -4 -8 -9 -8 -11 0
-203 -130 -213 -144 -5 -7 -8 -7 -8 -1 0 6 -3 6 -8 0 -7 -10 -80 -68 -138
-110 -15 -11 -32 -24 -38 -30 -6 -5 -49 -41 -96 -79 -47 -37 -110 -90 -140
-116 -30 -27 -65 -57 -77 -67 -27 -24 -174 -157 -222 -201 -67 -62 -435 -420
-666 -648 -196 -193 -350 -341 -550 -529 -24 -22 -73 -67 -111 -100 -37 -33
-82 -74 -101 -91 -18 -18 -51 -46 -73 -64 -21 -17 -50 -42 -63 -53 -55 -49
-99 -87 -103 -87 -2 0 -12 -8 -22 -17 -10 -10 -35 -31 -56 -48 -21 -16 -47
-37 -57 -45 -11 -8 -31 -24 -45 -35 -14 -11 -31 -25 -37 -30 -24 -21 -204
-153 -267 -196 -36 -24 -67 -47 -70 -50 -9 -10 -134 -89 -142 -89 -4 0 -13
-10 -19 -22 -12 -22 -11 -22 12 -7 13 8 46 23 73 33 74 28 293 141 527 272 54
30 102 54 107 54 6 0 12 3 14 8 14 32 544 253 562 234 3 -3 6 0 6 6 0 7 3 11
8 10 4 -1 41 6 82 16 113 27 112 27 150 32 19 2 42 7 50 9 8 2 42 7 74 11 33
3 69 8 80 11 37 9 496 11 529 3 18 -5 55 -11 82 -14 118 -14 377 -82 483 -126
12 -6 32 -14 45 -19 97 -39 210 -87 250 -107 26 -14 47 -21 47 -18 0 4 6 2 13
-4 6 -5 104 -57 217 -115 253 -129 361 -186 378 -199 6 -6 12 -7 12 -3 0 5 8
1 18 -7 20 -19 463 -239 577 -287 44 -19 103 -44 130 -56 28 -12 70 -30 95
-39 25 -10 54 -22 65 -27 30 -13 317 -110 339 -114 10 -3 44 -12 75 -21 31 -9
63 -18 71 -20 8 -2 42 -10 76 -18 175 -43 409 -84 579 -101 307 -31 809 -26
1070 10 22 4 58 8 80 10 22 2 56 6 75 10 19 3 49 8 65 9 17 2 44 6 60 9 17 4
48 9 70 13 130 20 245 45 269 57 14 7 16 6 11 -4 -5 -8 -4 -10 4 -5 6 4 84 25
174 47 89 22 169 42 177 44 8 3 36 10 63 17 26 6 47 14 47 17 0 3 -28 14 -63
23 -34 9 -98 26 -142 38 -44 11 -87 23 -95 26 -8 3 -17 6 -20 6 -3 0 -15 4
-28 9 -12 5 -33 11 -45 13 -12 3 -56 14 -97 26 -41 11 -84 23 -95 25 -11 3
-105 30 -210 61 -104 30 -197 57 -205 59 -8 2 -16 4 -17 5 -2 2 -6 3 -10 4 -5
1 -42 13 -83 26 -41 13 -78 24 -82 26 -5 1 -10 3 -13 4 -3 1 -8 3 -12 4 -42
10 -129 42 -134 49 -3 5 -10 8 -15 7 -9 -1 -111 33 -149 50 -11 5 -49 21 -85
36 -36 14 -81 33 -100 41 -59 26 -285 137 -290 142 -5 6 -81 48 -117 65 -13 6
-23 14 -23 19 0 4 -6 7 -14 7 -8 0 -16 3 -18 8 -4 9 -65 52 -73 52 -4 0 -12 6
-19 13 -7 6 -25 21 -40 32 -83 60 -136 106 -224 195 -72 73 -188 219 -214 270
-7 14 -16 27 -19 30 -5 5 -81 161 -99 205 -27 67 -67 207 -76 265 -2 14 -5 35
-8 48 -25 118 -26 449 -1 573 3 13 8 38 11 54 3 17 14 62 26 100 12 39 23 76
24 83 8 45 133 261 156 270 4 2 8 8 8 14 0 6 34 44 76 85 137 134 294 222 493
277 202 56 386 71 641 53 l85 -7 -95 36 c-52 19 -99 37 -105 38 -5 2 -22 8
-37 14 -65 27 -408 128 -498 147 -8 2 -37 9 -65 15 -75 17 -87 20 -125 25 -19
3 -46 8 -60 11 -14 3 -37 8 -52 10 -16 2 -43 6 -60 9 -36 5 -142 17 -173 19
-11 1 -24 4 -30 7 -15 9 -494 8 -542 0 -28 -6 -44 -5 -47 3 -3 7 -5 7 -5 0z"/>
<path d="M3196 4643 c-2 -2 -32 -6 -67 -8 -89 -6 -170 -17 -249 -32 -46 -9
-50 -10 -52 -13 -2 -1 -12 -3 -23 -5 -41 -7 -164 -39 -195 -52 -8 -3 -21 -7
-28 -9 -79 -16 -580 -256 -630 -302 -7 -7 -17 -10 -22 -7 -5 3 -10 1 -12 -3
-3 -10 6 -5 -226 -124 -149 -77 -389 -183 -432 -193 -8 -2 -52 -15 -96 -29
-45 -15 -90 -28 -100 -30 -11 -2 -45 -11 -76 -21 -32 -9 -62 -14 -68 -10 -5 3
-10 2 -10 -3 0 -5 -6 -9 -12 -9 -7 0 -29 -4 -48 -7 -131 -25 -202 -36 -250
-42 -30 -3 -66 -7 -80 -9 -14 -2 -79 -7 -145 -10 -66 -4 -122 -9 -124 -11 -2
-2 34 -4 80 -4 46 0 235 -2 419 -5 320 -4 446 -8 715 -21 66 -3 146 -7 177 -7
32 -1 58 -4 58 -7 0 -3 26 -6 58 -6 69 -2 177 -12 322 -28 30 -4 73 -9 95 -11
22 -2 53 -7 70 -10 16 -3 50 -8 75 -11 67 -8 89 -11 150 -23 30 -6 67 -13 83
-16 67 -13 83 -16 97 -20 8 -3 33 -7 55 -11 22 -3 48 -10 58 -15 9 -5 17 -8
17 -5 0 2 39 -7 88 -21 113 -32 102 -29 137 -37 17 -4 37 -10 45 -13 59 -22
148 -54 160 -57 18 -5 199 -77 255 -102 22 -10 42 -18 45 -19 3 0 21 -8 40
-17 33 -16 109 -49 120 -53 3 -1 28 -12 55 -25 28 -13 52 -24 55 -25 10 -3
136 -63 245 -116 61 -29 112 -53 115 -54 3 -1 44 -20 92 -43 48 -23 92 -42 98
-42 5 0 10 -5 10 -10 0 -6 3 -9 8 -8 4 1 27 -8 51 -20 25 -12 51 -22 58 -22 7
0 13 -4 13 -9 0 -5 11 -12 24 -15 13 -3 66 -26 117 -50 119 -56 335 -147 453
-192 50 -19 100 -38 111 -43 11 -5 49 -19 85 -31 36 -12 74 -26 85 -31 25 -11
228 -71 315 -94 85 -22 82 -21 180 -44 81 -19 98 -22 180 -36 19 -3 42 -8 50
-10 30 -8 238 -32 350 -40 66 -4 385 -4 455 0 63 5 160 14 203 20 17 3 49 7
70 10 20 3 48 8 62 11 14 2 36 6 50 9 150 29 240 50 325 75 17 5 62 19 100 30
39 12 79 25 90 30 11 5 42 16 69 25 27 9 54 19 60 23 6 3 16 7 21 8 13 3 180
72 203 83 64 34 177 85 180 83 3 -2 8 0 11 5 3 4 24 17 46 28 22 11 42 22 45
25 3 3 25 15 50 27 55 27 143 76 150 83 3 3 37 25 75 48 197 121 525 350 533
373 2 5 10 9 17 9 7 0 15 3 17 8 2 4 35 32 73 62 39 30 75 59 81 65 6 5 28 24
48 40 56 45 181 153 226 195 9 8 34 32 57 52 23 20 39 38 37 41 -2 2 -50 -11
-107 -30 -56 -19 -133 -43 -172 -54 -38 -11 -77 -22 -85 -26 -8 -3 -19 -7 -25
-9 -5 -1 -64 -16 -130 -34 -66 -17 -136 -35 -155 -40 -19 -5 -44 -11 -55 -13
-35 -9 -259 -58 -280 -62 -11 -2 -45 -8 -75 -14 -30 -6 -70 -13 -87 -16 -18
-3 -48 -8 -65 -11 -18 -3 -44 -7 -58 -9 -48 -5 -133 -17 -154 -21 -19 -4 -47
-7 -166 -19 -201 -21 -515 -34 -526 -22 -3 3 -17 2 -30 -3 -16 -6 -24 -6 -24
1 0 6 -6 6 -19 0 -10 -6 -21 -8 -23 -5 -3 2 -54 6 -114 9 -60 3 -136 7 -169
10 -33 4 -67 7 -75 7 -8 0 -67 7 -130 15 -140 19 -154 21 -160 23 -3 1 -8 2
-12 1 -9 -1 -93 16 -223 44 -142 32 -134 30 -279 69 -96 27 -310 98 -323 108
-7 5 -17 7 -23 3 -5 -3 -10 -2 -10 4 0 5 -15 13 -32 16 -18 4 -37 11 -43 14
-5 4 -26 14 -45 21 -229 86 -544 239 -1035 502 -121 64 -494 250 -508 252 -7
1 -30 12 -52 23 -22 11 -44 22 -50 23 -5 1 -25 8 -44 16 -18 8 -37 14 -42 14
-5 0 -17 4 -27 9 -15 9 -49 22 -62 26 -12 3 -86 27 -100 32 -8 3 -26 8 -40 10
-13 2 -30 9 -37 15 -7 6 -13 8 -13 5 0 -3 -17 -1 -37 4 -21 5 -49 12 -63 15
-14 3 -45 10 -70 15 -25 6 -74 13 -110 16 -73 6 -409 11 -414 6z"/>
<path d="M218 3713 c7 -3 16 -2 19 1 4 3 -2 6 -13 5 -11 0 -14 -3 -6 -6z"/>
</g>
</svg>
